<!DOCTYPE svg PUBLIC "-//W3C//DTD SVG 1.0//EN" "http://www.w3.org/TR/2001/REC-SVG-20010904/DTD/svg10.dtd">
<svg xmlns:xlink="http://www.w3.org/1999/xlink" xmlns="http://www.w3.org/2000/svg" fill-opacity="0" color-rendering="auto" color-interpolation="auto" stroke="rgb(0,0,0)" text-rendering="auto" stroke-linecap="square" width="366" stroke-miterlimit="10" stroke-opacity="0" shape-rendering="auto" fill="rgb(0,0,0)" stroke-dasharray="none" font-weight="normal" stroke-width="1" height="214" font-family="'Dialog'" font-style="normal" stroke-linejoin="miter" font-size="12" stroke-dashoffset="0" image-rendering="auto">
  <!--Generated by the Batik Graphics2D SVG Generator-->
  <defs id="genericDefs"/>
  <g>
    <defs id="defs1">
      <clipPath clipPathUnits="userSpaceOnUse" id="clipPath1">
        <path d="M-7 -7 L41 -7 L41 71 L-7 71 L-7 -7 Z"/>
      </clipPath>
      <clipPath clipPathUnits="userSpaceOnUse" id="clipPath2">
        <path d="M-7 -7 L211 -7 L211 219 L-7 219 L-7 -7 Z"/>
      </clipPath>
      <clipPath clipPathUnits="userSpaceOnUse" id="clipPath3">
        <path d="M0 0 L200 0 L200 208 L0 208 L0 0 Z"/>
      </clipPath>
      <clipPath clipPathUnits="userSpaceOnUse" id="clipPath4">
        <path d="M-7 -7 L174 -7 L174 51 L-7 51 L-7 -7 Z"/>
      </clipPath>
      <clipPath clipPathUnits="userSpaceOnUse" id="clipPath5">
        <path d="M0 0 L163 0 L163 40 L0 40 L0 0 Z"/>
      </clipPath>
      <clipPath clipPathUnits="userSpaceOnUse" id="clipPath6">
        <path d="M-7 -7 L171 -7 L171 51 L-7 51 L-7 -7 Z"/>
      </clipPath>
      <clipPath clipPathUnits="userSpaceOnUse" id="clipPath7">
        <path d="M0 0 L160 0 L160 40 L0 40 L0 0 Z"/>
      </clipPath>
      <clipPath clipPathUnits="userSpaceOnUse" id="clipPath8">
        <path d="M-76 -14 L152 -14 L152 28 L-76 28 L-76 -14 Z"/>
      </clipPath>
      <clipPath clipPathUnits="userSpaceOnUse" id="clipPath9">
        <path d="M0 0 L230 0 L230 104 L0 104 L0 0 Z"/>
      </clipPath>
      <clipPath clipPathUnits="userSpaceOnUse" id="clipPath10">
        <path d="M0 0 L249 0 L249 157 L0 157 L0 0 Z"/>
      </clipPath>
    </defs>
    <g fill="white" text-rendering="geometricPrecision" fill-opacity="1" stroke-opacity="1" stroke="white">
      <rect x="0" width="366" height="214" y="0" stroke="none"/>
    </g>
    <g font-size="11" transform="translate(25,62)" fill-opacity="1" fill="white" text-rendering="geometricPrecision" font-family="sans-serif" stroke="white" stroke-opacity="1">
      <circle r="7.5" clip-path="url(#clipPath1)" cx="14.5" cy="7.5" stroke="none"/>
    </g>
    <g font-size="11" stroke-linecap="butt" transform="translate(25,62)" fill-opacity="1" fill="black" text-rendering="geometricPrecision" font-family="sans-serif" stroke-linejoin="round" stroke="black" stroke-opacity="1" stroke-miterlimit="0">
      <circle fill="none" r="7.5" clip-path="url(#clipPath1)" cx="14.5" cy="7.5"/>
      <line y2="40" fill="none" x1="15" clip-path="url(#clipPath1)" x2="15" y1="15"/>
      <line y2="24" fill="none" x1="0" clip-path="url(#clipPath1)" x2="30" y1="24"/>
      <line y2="60" fill="none" x1="15" clip-path="url(#clipPath1)" x2="0" y1="40"/>
      <line y2="60" fill="none" x1="15" clip-path="url(#clipPath1)" x2="30" y1="40"/>
    </g>
    <g font-size="11" transform="translate(162,2)" fill-opacity="1" fill="white" text-rendering="geometricPrecision" font-family="sans-serif" stroke="white" stroke-opacity="1">
      <rect x="0" width="199" height="207" y="0" clip-path="url(#clipPath2)" stroke="none"/>
    </g>
    <g font-size="11" stroke-linecap="butt" transform="translate(162,2)" fill-opacity="1" fill="black" text-rendering="geometricPrecision" font-family="sans-serif" stroke-linejoin="round" stroke="black" stroke-opacity="1" stroke-miterlimit="0">
      <rect fill="none" x="0" width="199" height="207" y="0" clip-path="url(#clipPath2)"/>
    </g>
    <g font-size="11" transform="translate(162,2)" fill-opacity="1" fill="black" text-rendering="geometricPrecision" font-family="sans-serif" stroke="black" stroke-opacity="1">
      <text x="45" xml:space="preserve" y="11" clip-path="url(#clipPath3)" stroke="none">Fahrstuhlsimulation</text>
    </g>
    <g font-size="11" transform="translate(181,72)" fill-opacity="1" fill="white" text-rendering="geometricPrecision" font-family="sans-serif" stroke="white" stroke-opacity="1">
      <ellipse rx="81.5" ry="20" clip-path="url(#clipPath4)" cx="81.5" cy="20" stroke="none"/>
    </g>
    <g font-size="11" stroke-linecap="butt" transform="translate(181,72)" fill-opacity="1" fill="black" text-rendering="geometricPrecision" font-family="sans-serif" stroke-linejoin="round" stroke="black" stroke-opacity="1" stroke-miterlimit="0">
      <ellipse rx="81.5" fill="none" ry="20" clip-path="url(#clipPath4)" cx="81.5" cy="20"/>
    </g>
    <g font-size="11" transform="translate(181,72)" fill-opacity="1" fill="black" text-rendering="geometricPrecision" font-family="sans-serif" stroke="black" stroke-opacity="1">
      <text x="4" xml:space="preserve" y="24" clip-path="url(#clipPath5)" stroke="none">Passagier einsteigen lassen</text>
    </g>
    <g font-size="11" transform="translate(181,138)" fill-opacity="1" fill="white" text-rendering="geometricPrecision" font-family="sans-serif" stroke="white" stroke-opacity="1">
      <ellipse rx="80" ry="20" clip-path="url(#clipPath6)" cx="80" cy="20" stroke="none"/>
    </g>
    <g font-size="11" stroke-linecap="butt" transform="translate(181,138)" fill-opacity="1" fill="black" text-rendering="geometricPrecision" font-family="sans-serif" stroke-linejoin="round" stroke="black" stroke-opacity="1" stroke-miterlimit="0">
      <ellipse rx="80" fill="none" ry="20" clip-path="url(#clipPath6)" cx="80" cy="20"/>
    </g>
    <g font-size="11" transform="translate(181,138)" fill-opacity="1" fill="black" text-rendering="geometricPrecision" font-family="sans-serif" stroke="black" stroke-opacity="1">
      <text x="4" xml:space="preserve" y="24" clip-path="url(#clipPath7)" stroke="none">Passagier austeigen lassen</text>
    </g>
    <g font-size="11" transform="translate(2,122)" fill-opacity="1" fill="black" text-rendering="geometricPrecision" font-family="sans-serif" stroke="black" stroke-opacity="1">
      <text x="10" xml:space="preserve" y="11" clip-path="url(#clipPath8)" stroke="none">Anwender</text>
    </g>
    <g font-size="11" stroke-linecap="butt" transform="translate(5,42)" fill-opacity="1" fill="black" text-rendering="geometricPrecision" font-family="sans-serif" stroke-linejoin="round" stroke="black" stroke-opacity="1">
      <line y2="50" fill="none" x1="50" clip-path="url(#clipPath9)" x2="176" y1="50"/>
    </g>
    <g font-size="11" stroke-linecap="butt" transform="translate(5,42)" fill-opacity="1" fill="black" text-rendering="geometricPrecision" font-family="sans-serif" stroke-linejoin="round" stroke="black" stroke-opacity="1">
      <line y2="103" fill="none" x1="50" clip-path="url(#clipPath10)" x2="195" y1="50"/>
    </g>
    <g fill="rgb(120,120,120)" text-rendering="geometricPrecision" fill-opacity="1" font-size="10" stroke-opacity="1" stroke="rgb(120,120,120)">
    </g>
  </g>
</svg>
