<!DOCTYPE svg PUBLIC "-//W3C//DTD SVG 1.0//EN" "http://www.w3.org/TR/2001/REC-SVG-20010904/DTD/svg10.dtd">
<svg xmlns:xlink="http://www.w3.org/1999/xlink" xmlns="http://www.w3.org/2000/svg" fill-opacity="0" color-rendering="auto" color-interpolation="auto" stroke="rgb(0,0,0)" text-rendering="auto" stroke-linecap="square" width="489" stroke-miterlimit="10" stroke-opacity="0" shape-rendering="auto" fill="rgb(0,0,0)" stroke-dasharray="none" font-weight="normal" stroke-width="1" height="260" font-family="'Dialog'" font-style="normal" stroke-linejoin="miter" font-size="12" stroke-dashoffset="0" image-rendering="auto">
  <!--Generated by the Batik Graphics2D SVG Generator-->
  <defs id="genericDefs"/>
  <g>
    <defs id="defs1">
      <clipPath clipPathUnits="userSpaceOnUse" id="clipPath1">
        <path d="M-7 -7 L492 -7 L492 265 L-7 265 L-7 -7 Z"/>
      </clipPath>
      <clipPath clipPathUnits="userSpaceOnUse" id="clipPath2">
        <path d="M0 0 L457 0 L457 254 L0 254 L0 0 Z"/>
      </clipPath>
      <clipPath clipPathUnits="userSpaceOnUse" id="clipPath3">
        <path d="M0 0 L0 223 L481 223 L481 0 Z"/>
      </clipPath>
      <clipPath clipPathUnits="userSpaceOnUse" id="clipPath4">
        <path d="M-7 -7 L247 -7 L247 165 L-7 165 L-7 -7 Z"/>
      </clipPath>
      <clipPath clipPathUnits="userSpaceOnUse" id="clipPath5">
        <path d="M0 0 L212 0 L212 154 L0 154 L0 0 Z"/>
      </clipPath>
      <clipPath clipPathUnits="userSpaceOnUse" id="clipPath6">
        <path d="M0 0 L0 123 L236 123 L236 0 Z"/>
      </clipPath>
      <clipPath clipPathUnits="userSpaceOnUse" id="clipPath7">
        <path d="M-7 -7 L31 -7 L31 31 L-7 31 L-7 -7 Z"/>
      </clipPath>
      <clipPath clipPathUnits="userSpaceOnUse" id="clipPath8">
        <path d="M-63 -14 L126 -14 L126 28 L-63 28 L-63 -14 Z"/>
      </clipPath>
      <clipPath clipPathUnits="userSpaceOnUse" id="clipPath9">
        <path d="M-105 -14 L210 -14 L210 28 L-105 28 L-105 -14 Z"/>
      </clipPath>
      <clipPath clipPathUnits="userSpaceOnUse" id="clipPath10">
        <path d="M-83 -14 L166 -14 L166 28 L-83 28 L-83 -14 Z"/>
      </clipPath>
      <clipPath clipPathUnits="userSpaceOnUse" id="clipPath11">
        <path d="M0 0 L219 0 L219 104 L0 104 L0 0 Z"/>
      </clipPath>
      <clipPath clipPathUnits="userSpaceOnUse" id="clipPath12">
        <path d="M115 215 L115 -4 L219 -4 L219 215 L115 215 Z"/>
      </clipPath>
    </defs>
    <g fill="white" text-rendering="geometricPrecision" fill-opacity="1" stroke-opacity="1" stroke="white">
      <rect x="0" width="489" height="260" y="0" stroke="none"/>
    </g>
    <g font-size="11" transform="translate(2,2)" fill-opacity="1" fill="white" text-rendering="geometricPrecision" font-family="sans-serif" stroke="white" font-weight="bold" stroke-opacity="1">
      <rect x="0" width="481" height="254" y="0" clip-path="url(#clipPath1)" stroke="none"/>
    </g>
    <g font-size="11" stroke-linecap="butt" transform="translate(2,2)" fill-opacity="1" fill="black" text-rendering="geometricPrecision" font-family="sans-serif" stroke-linejoin="round" stroke="black" font-weight="bold" stroke-opacity="1" stroke-miterlimit="0">
      <rect fill="none" x="0" width="480" height="253" y="0" clip-path="url(#clipPath1)"/>
      <line stroke-linecap="square" clip-path="url(#clipPath1)" fill="none" x1="465" x2="475" y1="5" stroke-linejoin="miter" y2="5" stroke-miterlimit="10"/>
      <line stroke-linecap="square" clip-path="url(#clipPath1)" fill="none" x1="475" x2="475" y1="5" stroke-linejoin="miter" y2="21" stroke-miterlimit="10"/>
      <line stroke-linecap="square" clip-path="url(#clipPath1)" fill="none" x1="465" x2="475" y1="21" stroke-linejoin="miter" y2="21" stroke-miterlimit="10"/>
      <line stroke-linecap="square" clip-path="url(#clipPath1)" fill="none" x1="465" x2="465" y1="5" stroke-linejoin="miter" y2="8" stroke-miterlimit="10"/>
      <rect stroke-linecap="square" x="462" y="8" clip-path="url(#clipPath1)" fill="none" width="7" stroke-linejoin="miter" height="4" stroke-miterlimit="10"/>
      <line stroke-linecap="square" clip-path="url(#clipPath1)" fill="none" x1="465" x2="465" y1="12" stroke-linejoin="miter" y2="14" stroke-miterlimit="10"/>
      <rect stroke-linecap="square" x="462" y="14" clip-path="url(#clipPath1)" fill="none" width="7" stroke-linejoin="miter" height="4" stroke-miterlimit="10"/>
      <line stroke-linecap="square" clip-path="url(#clipPath1)" fill="none" x1="465" x2="465" y1="18" stroke-linejoin="miter" y2="21" stroke-miterlimit="10"/>
    </g>
    <g font-size="11" transform="translate(2,2)" fill-opacity="1" fill="black" text-rendering="geometricPrecision" font-family="sans-serif" stroke="black" stroke-opacity="1">
      <text x="178" xml:space="preserve" y="14" clip-path="url(#clipPath2)" stroke="none">&lt;&lt;component&gt;&gt;</text>
      <text x="166" xml:space="preserve" y="28" font-weight="bold" clip-path="url(#clipPath2)" stroke="none">Fahrstuhlsimulation</text>
    </g>
    <g font-size="11" transform="translate(71,72)" fill-opacity="1" fill="white" text-rendering="geometricPrecision" font-family="sans-serif" stroke="white" font-weight="bold" stroke-opacity="1">
      <rect x="0" width="236" height="154" y="0" clip-path="url(#clipPath4)" stroke="none"/>
    </g>
    <g font-size="11" stroke-linecap="butt" transform="translate(71,72)" fill-opacity="1" fill="black" text-rendering="geometricPrecision" font-family="sans-serif" stroke-linejoin="round" stroke="black" font-weight="bold" stroke-opacity="1" stroke-miterlimit="0">
      <rect fill="none" x="0" width="235" height="153" y="0" clip-path="url(#clipPath4)"/>
      <line stroke-linecap="square" clip-path="url(#clipPath4)" fill="none" x1="220" x2="230" y1="5" stroke-linejoin="miter" y2="5" stroke-miterlimit="10"/>
      <line stroke-linecap="square" clip-path="url(#clipPath4)" fill="none" x1="230" x2="230" y1="5" stroke-linejoin="miter" y2="21" stroke-miterlimit="10"/>
      <line stroke-linecap="square" clip-path="url(#clipPath4)" fill="none" x1="220" x2="230" y1="21" stroke-linejoin="miter" y2="21" stroke-miterlimit="10"/>
      <line stroke-linecap="square" clip-path="url(#clipPath4)" fill="none" x1="220" x2="220" y1="5" stroke-linejoin="miter" y2="8" stroke-miterlimit="10"/>
      <rect stroke-linecap="square" x="217" y="8" clip-path="url(#clipPath4)" fill="none" width="7" stroke-linejoin="miter" height="4" stroke-miterlimit="10"/>
      <line stroke-linecap="square" clip-path="url(#clipPath4)" fill="none" x1="220" x2="220" y1="12" stroke-linejoin="miter" y2="14" stroke-miterlimit="10"/>
      <rect stroke-linecap="square" x="217" y="14" clip-path="url(#clipPath4)" fill="none" width="7" stroke-linejoin="miter" height="4" stroke-miterlimit="10"/>
      <line stroke-linecap="square" clip-path="url(#clipPath4)" fill="none" x1="220" x2="220" y1="18" stroke-linejoin="miter" y2="21" stroke-miterlimit="10"/>
    </g>
    <g font-size="11" transform="translate(71,72)" fill-opacity="1" fill="black" text-rendering="geometricPrecision" font-family="sans-serif" stroke="black" stroke-opacity="1">
      <text x="55" xml:space="preserve" y="14" clip-path="url(#clipPath5)" stroke="none">&lt;&lt;component&gt;&gt;</text>
      <text x="44" xml:space="preserve" y="28" font-weight="bold" clip-path="url(#clipPath5)" stroke="none">Fahrstuhlsteuerung</text>
    </g>
    <g font-size="11" transform="translate(401,160)" fill-opacity="1" fill="black" text-rendering="geometricPrecision" font-family="sans-serif" stroke="black" font-weight="bold" stroke-opacity="1">
      <text x="9" xml:space="preserve" y="11" clip-path="url(#clipPath8)" stroke="none">Waage</text>
    </g>
    <g font-size="11" transform="translate(380,110)" fill-opacity="1" fill="black" text-rendering="geometricPrecision" font-family="sans-serif" stroke="black" font-weight="bold" stroke-opacity="1">
      <text x="8" xml:space="preserve" y="11" clip-path="url(#clipPath9)" stroke="none">Etagensensor</text>
    </g>
    <g font-size="11" transform="translate(391,58)" fill-opacity="1" fill="black" text-rendering="geometricPrecision" font-family="sans-serif" stroke="black" font-weight="bold" stroke-opacity="1">
      <text x="9" xml:space="preserve" y="11" clip-path="url(#clipPath10)" stroke="none">T&#xFC;rsensor</text>
    </g>
    <g font-size="11" stroke-linecap="butt" transform="translate(258,39)" fill-opacity="1" fill="black" text-rendering="geometricPrecision" font-family="sans-serif" stroke-linejoin="round" stroke="black" stroke-opacity="1">
      <line y2="50" fill="none" x1="50" clip-path="url(#clipPath11)" x2="159" y1="50"/>
      <path fill="none" d="M152 42.8571 A13 13 0 0 0 178 42.8571" clip-path="url(#clipPath12)" transform="translate(165,50) rotate(90) translate(-165,-50)"/>
    </g>
    <g font-size="11" stroke-linecap="butt" transform="translate(258,93)" fill-opacity="1" fill="black" text-rendering="geometricPrecision" font-family="sans-serif" stroke-linejoin="round" stroke="black" stroke-opacity="1">
      <line y2="50" fill="none" x1="50" clip-path="url(#clipPath11)" x2="159" y1="50"/>
      <path fill="none" d="M152 42.8571 A13 13 0 0 0 178 42.8571" clip-path="url(#clipPath12)" transform="translate(165,50) rotate(90) translate(-165,-50)"/>
    </g>
    <g font-size="11" stroke-linecap="butt" transform="translate(258,147)" fill-opacity="1" fill="black" text-rendering="geometricPrecision" font-family="sans-serif" stroke-linejoin="round" stroke="black" stroke-opacity="1">
      <line y2="50" fill="none" x1="50" clip-path="url(#clipPath11)" x2="159" y1="50"/>
      <path fill="none" d="M152 42.8571 A13 13 0 0 0 178 42.8571" clip-path="url(#clipPath12)" transform="translate(165,50) rotate(90) translate(-165,-50)"/>
    </g>
    <g fill="rgb(120,120,120)" text-rendering="geometricPrecision" fill-opacity="1" font-size="10" stroke-opacity="1" stroke="rgb(120,120,120)">
    </g>
  </g>
</svg>
