<!DOCTYPE svg PUBLIC "-//W3C//DTD SVG 1.0//EN" "http://www.w3.org/TR/2001/REC-SVG-20010904/DTD/svg10.dtd">
<svg xmlns:xlink="http://www.w3.org/1999/xlink" xmlns="http://www.w3.org/2000/svg" fill-opacity="0" color-rendering="auto" color-interpolation="auto" stroke="rgb(0,0,0)" text-rendering="auto" stroke-linecap="square" width="520" stroke-miterlimit="10" stroke-opacity="0" shape-rendering="auto" fill="rgb(0,0,0)" stroke-dasharray="none" font-weight="normal" stroke-width="1" height="340" font-family="'Dialog'" font-style="normal" stroke-linejoin="miter" font-size="12" stroke-dashoffset="0" image-rendering="auto">
  <!--Generated by the Batik Graphics2D SVG Generator-->
  <defs id="genericDefs"/>
  <g>
    <defs id="defs1">
      <clipPath clipPathUnits="userSpaceOnUse" id="clipPath1">
        <path d="M-7 -7 L379 -7 L379 345 L-7 345 L-7 -7 Z"/>
      </clipPath>
      <clipPath clipPathUnits="userSpaceOnUse" id="clipPath2">
        <path d="M0 0 L368 0 L368 334 L0 334 L0 0 Z"/>
      </clipPath>
      <clipPath clipPathUnits="userSpaceOnUse" id="clipPath3">
        <path d="M-7 -7 L41 -7 L41 71 L-7 71 L-7 -7 Z"/>
      </clipPath>
      <clipPath clipPathUnits="userSpaceOnUse" id="clipPath4">
        <path d="M-7 -7 L211 -7 L211 291 L-7 291 L-7 -7 Z"/>
      </clipPath>
      <clipPath clipPathUnits="userSpaceOnUse" id="clipPath5">
        <path d="M0 0 L200 0 L200 280 L0 280 L0 0 Z"/>
      </clipPath>
      <clipPath clipPathUnits="userSpaceOnUse" id="clipPath6">
        <path d="M-7 -7 L107 -7 L107 56 L-7 56 L-7 -7 Z"/>
      </clipPath>
      <clipPath clipPathUnits="userSpaceOnUse" id="clipPath7">
        <path d="M0 0 L96 0 L96 45 L0 45 L0 0 Z"/>
      </clipPath>
      <clipPath clipPathUnits="userSpaceOnUse" id="clipPath8">
        <path d="M-7 -7 L148 -7 L148 61 L-7 61 L-7 -7 Z"/>
      </clipPath>
      <clipPath clipPathUnits="userSpaceOnUse" id="clipPath9">
        <path d="M0 0 L137 0 L137 50 L0 50 L0 0 Z"/>
      </clipPath>
      <clipPath clipPathUnits="userSpaceOnUse" id="clipPath10">
        <path d="M-7 -7 L170 -7 L170 65 L-7 65 L-7 -7 Z"/>
      </clipPath>
      <clipPath clipPathUnits="userSpaceOnUse" id="clipPath11">
        <path d="M0 0 L159 0 L159 54 L0 54 L0 0 Z"/>
      </clipPath>
      <clipPath clipPathUnits="userSpaceOnUse" id="clipPath12">
        <path d="M-66 -14 L132 -14 L132 28 L-66 28 L-66 -14 Z"/>
      </clipPath>
      <clipPath clipPathUnits="userSpaceOnUse" id="clipPath13">
        <path d="M-73 -14 L146 -14 L146 28 L-73 28 L-73 -14 Z"/>
      </clipPath>
      <clipPath clipPathUnits="userSpaceOnUse" id="clipPath14">
        <path d="M-76 -14 L152 -14 L152 28 L-76 28 L-76 -14 Z"/>
      </clipPath>
      <clipPath clipPathUnits="userSpaceOnUse" id="clipPath15">
        <path d="M0 0 L196 0 L196 104 L0 104 L0 0 Z"/>
      </clipPath>
      <clipPath clipPathUnits="userSpaceOnUse" id="clipPath16">
        <path d="M0 0 L104 0 L104 150 L0 150 L0 0 Z"/>
      </clipPath>
      <clipPath clipPathUnits="userSpaceOnUse" id="clipPath17">
        <path d="M0 0 L226 0 L226 104 L0 104 L0 0 Z"/>
      </clipPath>
      <clipPath clipPathUnits="userSpaceOnUse" id="clipPath18">
        <path d="M0 0 L211 0 L211 104 L0 104 L0 0 Z"/>
      </clipPath>
      <clipPath clipPathUnits="userSpaceOnUse" id="clipPath19">
        <path d="M0 0 L238 0 L238 175 L0 175 L0 0 Z"/>
      </clipPath>
      <clipPath clipPathUnits="userSpaceOnUse" id="clipPath20">
        <path d="M0 0 L193 0 L193 104 L0 104 L0 0 Z"/>
      </clipPath>
      <clipPath clipPathUnits="userSpaceOnUse" id="clipPath21">
        <path d="M-77 -14 L154 -14 L154 28 L-77 28 L-77 -14 Z"/>
      </clipPath>
    </defs>
    <g fill="white" text-rendering="geometricPrecision" fill-opacity="1" stroke-opacity="1" stroke="white">
      <rect x="0" width="520" height="340" y="0" stroke="none"/>
    </g>
    <g font-size="11" transform="translate(148,2)" fill-opacity="1" fill="white" text-rendering="geometricPrecision" font-family="sans-serif" stroke="white" stroke-opacity="1">
      <rect x="0" width="367" height="333" y="0" clip-path="url(#clipPath1)" stroke="none"/>
    </g>
    <g font-size="11" stroke-linecap="butt" transform="translate(148,2)" fill-opacity="1" fill="black" text-rendering="geometricPrecision" font-family="sans-serif" stroke-linejoin="round" stroke="black" stroke-opacity="1" stroke-miterlimit="0">
      <rect fill="none" x="0" width="367" height="333" y="0" clip-path="url(#clipPath1)"/>
    </g>
    <g font-size="11" transform="translate(148,2)" fill-opacity="1" fill="black" text-rendering="geometricPrecision" font-family="sans-serif" stroke="black" stroke-opacity="1">
      <text x="129" xml:space="preserve" y="11" clip-path="url(#clipPath2)" stroke="none">Fahrstuhlsimulation</text>
    </g>
    <g font-size="11" transform="translate(213,79)" fill-opacity="1" fill="white" text-rendering="geometricPrecision" font-family="sans-serif" stroke="white" stroke-opacity="1">
      <circle r="7.5" clip-path="url(#clipPath3)" cx="14.5" cy="7.5" stroke="none"/>
    </g>
    <g font-size="11" stroke-linecap="butt" transform="translate(213,79)" fill-opacity="1" fill="black" text-rendering="geometricPrecision" font-family="sans-serif" stroke-linejoin="round" stroke="black" stroke-opacity="1" stroke-miterlimit="0">
      <circle fill="none" r="7.5" clip-path="url(#clipPath3)" cx="14.5" cy="7.5"/>
      <line y2="40" fill="none" x1="15" clip-path="url(#clipPath3)" x2="15" y1="15"/>
      <line y2="24" fill="none" x1="0" clip-path="url(#clipPath3)" x2="30" y1="24"/>
      <line y2="60" fill="none" x1="15" clip-path="url(#clipPath3)" x2="0" y1="40"/>
      <line y2="60" fill="none" x1="15" clip-path="url(#clipPath3)" x2="30" y1="40"/>
    </g>
    <g font-size="11" transform="translate(304,40)" fill-opacity="1" fill="white" text-rendering="geometricPrecision" font-family="sans-serif" stroke="white" stroke-opacity="1">
      <rect x="0" width="199" height="279" y="0" clip-path="url(#clipPath4)" stroke="none"/>
    </g>
    <g font-size="11" stroke-linecap="butt" transform="translate(304,40)" fill-opacity="1" fill="black" text-rendering="geometricPrecision" font-family="sans-serif" stroke-linejoin="round" stroke="black" stroke-opacity="1" stroke-miterlimit="0">
      <rect fill="none" x="0" width="199" height="279" y="0" clip-path="url(#clipPath4)"/>
    </g>
    <g font-size="11" transform="translate(304,40)" fill-opacity="1" fill="black" text-rendering="geometricPrecision" font-family="sans-serif" stroke="black" stroke-opacity="1">
      <text x="46" xml:space="preserve" y="11" clip-path="url(#clipPath5)" stroke="none">Fahrstuhlsteuerung</text>
    </g>
    <g font-size="11" transform="translate(365,91)" fill-opacity="1" fill="white" text-rendering="geometricPrecision" font-family="sans-serif" stroke="white" stroke-opacity="1">
      <ellipse rx="48" ry="22.5" clip-path="url(#clipPath6)" cx="48" cy="22.5" stroke="none"/>
    </g>
    <g font-size="11" stroke-linecap="butt" transform="translate(365,91)" fill-opacity="1" fill="black" text-rendering="geometricPrecision" font-family="sans-serif" stroke-linejoin="round" stroke="black" stroke-opacity="1" stroke-miterlimit="0">
      <ellipse rx="48" fill="none" ry="22.5" clip-path="url(#clipPath6)" cx="48" cy="22.5"/>
    </g>
    <g font-size="11" transform="translate(365,91)" fill-opacity="1" fill="black" text-rendering="geometricPrecision" font-family="sans-serif" stroke="black" stroke-opacity="1">
      <text x="14" xml:space="preserve" y="19" clip-path="url(#clipPath7)" stroke="none">Fahrstuhlruf</text>
      <text x="24" xml:space="preserve" y="33" clip-path="url(#clipPath7)" stroke="none">ELV-014</text>
    </g>
    <g font-size="11" transform="translate(337,150)" fill-opacity="1" fill="white" text-rendering="geometricPrecision" font-family="sans-serif" stroke="white" stroke-opacity="1">
      <ellipse rx="68.5" ry="25" clip-path="url(#clipPath8)" cx="68.5" cy="25" stroke="none"/>
    </g>
    <g font-size="11" stroke-linecap="butt" transform="translate(337,150)" fill-opacity="1" fill="black" text-rendering="geometricPrecision" font-family="sans-serif" stroke-linejoin="round" stroke="black" stroke-opacity="1" stroke-miterlimit="0">
      <ellipse rx="68.5" fill="none" ry="25" clip-path="url(#clipPath8)" cx="68.5" cy="25"/>
    </g>
    <g font-size="11" transform="translate(337,150)" fill-opacity="1" fill="black" text-rendering="geometricPrecision" font-family="sans-serif" stroke="black" stroke-opacity="1">
      <text x="33" xml:space="preserve" y="22" clip-path="url(#clipPath9)" stroke="none">Fahrtwunsch</text>
      <text x="45" xml:space="preserve" y="36" clip-path="url(#clipPath9)" stroke="none">ELV-011</text>
    </g>
    <g font-size="11" transform="translate(330,210)" fill-opacity="1" fill="white" text-rendering="geometricPrecision" font-family="sans-serif" stroke="white" stroke-opacity="1">
      <ellipse rx="79.5" ry="27" clip-path="url(#clipPath10)" cx="79.5" cy="27" stroke="none"/>
    </g>
    <g font-size="11" stroke-linecap="butt" transform="translate(330,210)" fill-opacity="1" fill="black" text-rendering="geometricPrecision" font-family="sans-serif" stroke-linejoin="round" stroke="black" stroke-opacity="1" stroke-miterlimit="0">
      <ellipse rx="79.5" fill="none" ry="27" clip-path="url(#clipPath10)" cx="79.5" cy="27"/>
    </g>
    <g font-size="11" transform="translate(330,210)" fill-opacity="1" fill="black" text-rendering="geometricPrecision" font-family="sans-serif" stroke="black" stroke-opacity="1">
      <text x="9" xml:space="preserve" y="24" clip-path="url(#clipPath11)" stroke="none">Priorisierter Fahrtwunsch</text>
      <text x="56" xml:space="preserve" y="38" clip-path="url(#clipPath11)" stroke="none">ELV-015</text>
    </g>
    <g font-size="11" transform="translate(213,200)" fill-opacity="1" fill="white" text-rendering="geometricPrecision" font-family="sans-serif" stroke="white" stroke-opacity="1">
      <circle r="7.5" clip-path="url(#clipPath3)" cx="14.5" cy="7.5" stroke="none"/>
    </g>
    <g font-size="11" stroke-linecap="butt" transform="translate(213,200)" fill-opacity="1" fill="black" text-rendering="geometricPrecision" font-family="sans-serif" stroke-linejoin="round" stroke="black" stroke-opacity="1" stroke-miterlimit="0">
      <circle fill="none" r="7.5" clip-path="url(#clipPath3)" cx="14.5" cy="7.5"/>
      <line y2="40" fill="none" x1="15" clip-path="url(#clipPath3)" x2="15" y1="15"/>
      <line y2="24" fill="none" x1="0" clip-path="url(#clipPath3)" x2="30" y1="24"/>
      <line y2="60" fill="none" x1="15" clip-path="url(#clipPath3)" x2="0" y1="40"/>
      <line y2="60" fill="none" x1="15" clip-path="url(#clipPath3)" x2="30" y1="40"/>
    </g>
    <g font-size="11" transform="translate(25,150)" fill-opacity="1" fill="white" text-rendering="geometricPrecision" font-family="sans-serif" stroke="white" stroke-opacity="1">
      <circle r="7.5" clip-path="url(#clipPath3)" cx="14.5" cy="7.5" stroke="none"/>
    </g>
    <g font-size="11" stroke-linecap="butt" transform="translate(25,150)" fill-opacity="1" fill="black" text-rendering="geometricPrecision" font-family="sans-serif" stroke-linejoin="round" stroke="black" stroke-opacity="1" stroke-miterlimit="0">
      <circle fill="none" r="7.5" clip-path="url(#clipPath3)" cx="14.5" cy="7.5"/>
      <line y2="40" fill="none" x1="15" clip-path="url(#clipPath3)" x2="15" y1="15"/>
      <line y2="24" fill="none" x1="0" clip-path="url(#clipPath3)" x2="30" y1="24"/>
      <line y2="60" fill="none" x1="15" clip-path="url(#clipPath3)" x2="0" y1="40"/>
      <line y2="60" fill="none" x1="15" clip-path="url(#clipPath3)" x2="30" y1="40"/>
    </g>
    <g font-size="11" transform="translate(195,260)" fill-opacity="1" fill="black" text-rendering="geometricPrecision" font-family="sans-serif" stroke="black" stroke-opacity="1">
      <text x="10" xml:space="preserve" y="11" clip-path="url(#clipPath12)" stroke="none">Monteur</text>
    </g>
    <g font-size="11" transform="translate(192,139)" fill-opacity="1" fill="black" text-rendering="geometricPrecision" font-family="sans-serif" stroke="black" stroke-opacity="1">
      <text x="8" xml:space="preserve" y="11" clip-path="url(#clipPath13)" stroke="none">Passagier</text>
    </g>
    <g font-size="11" transform="translate(2,210)" fill-opacity="1" fill="black" text-rendering="geometricPrecision" font-family="sans-serif" stroke="black" stroke-opacity="1">
      <text x="10" xml:space="preserve" y="11" clip-path="url(#clipPath14)" stroke="none">Anwender</text>
    </g>
    <g font-size="11" stroke-linecap="butt" transform="translate(5,121)" stroke-dashoffset="1" fill-opacity="1" fill="black" text-rendering="geometricPrecision" font-family="sans-serif" stroke-linejoin="round" stroke-dasharray="5" stroke="black" stroke-opacity="1">
      <line y2="50" fill="none" x1="50" clip-path="url(#clipPath15)" x2="142" y1="50"/>
      <line stroke-dashoffset="0" clip-path="url(#clipPath15)" fill="none" x1="142" x2="130" y1="50" y2="44" stroke-dasharray="none"/>
      <line stroke-dashoffset="0" clip-path="url(#clipPath15)" fill="none" x1="142" x2="130" y1="50" y2="56" stroke-dasharray="none"/>
    </g>
    <g font-size="11" stroke-linecap="butt" transform="translate(178,103)" fill-opacity="1" fill="black" text-rendering="geometricPrecision" font-family="sans-serif" stroke-linejoin="round" stroke="black" stroke-opacity="1">
      <line y2="96" fill="none" x1="50" clip-path="url(#clipPath16)" x2="50" y1="50"/>
      <polygon fill="white" clip-path="url(#clipPath16)" points=" 50 50 44 62 56 62" stroke="none"/>
      <polygon fill="none" points=" 50 50 44 62 56 62" clip-path="url(#clipPath16)"/>
    </g>
    <g font-size="11" stroke-linecap="butt" transform="translate(193,59)" fill-opacity="1" fill="black" text-rendering="geometricPrecision" font-family="sans-serif" stroke-linejoin="round" stroke="black" stroke-opacity="1">
      <line y2="50" fill="none" x1="50" clip-path="url(#clipPath17)" x2="172" y1="50"/>
    </g>
    <g font-size="11" stroke-linecap="butt" transform="translate(215,103)" fill-opacity="1" fill="black" text-rendering="geometricPrecision" font-family="sans-serif" stroke-linejoin="round" stroke="black" stroke-opacity="1">
      <line y2="50" fill="none" x1="50" clip-path="url(#clipPath18)" x2="157" y1="50"/>
    </g>
    <g font-size="11" stroke-linecap="butt" transform="translate(193,79)" fill-opacity="1" fill="black" text-rendering="geometricPrecision" font-family="sans-serif" stroke-linejoin="round" stroke="black" stroke-opacity="1">
      <line y2="50" fill="none" x1="50" clip-path="url(#clipPath19)" x2="184" y1="121"/>
    </g>
    <g font-size="11" stroke-linecap="butt" transform="translate(193,180)" fill-opacity="1" fill="black" text-rendering="geometricPrecision" font-family="sans-serif" stroke-linejoin="round" stroke="black" stroke-opacity="1">
      <line y2="50" fill="none" x1="50" clip-path="url(#clipPath20)" x2="139" y1="50"/>
    </g>
    <g font-size="11" transform="translate(63,157)" fill-opacity="1" fill="black" text-rendering="geometricPrecision" font-family="sans-serif" stroke="black" stroke-opacity="1">
      <text x="9" xml:space="preserve" y="11" clip-path="url(#clipPath21)" stroke="none">&lt;&lt;use&gt;&gt;</text>
    </g>
    <g fill="rgb(120,120,120)" text-rendering="geometricPrecision" fill-opacity="1" font-size="10" stroke-opacity="1" stroke="rgb(120,120,120)">
    </g>
  </g>
</svg>
